<?xml version="1.0" encoding="utf-8"?>
<!-- Generator: Adobe Illustrator 26.2.1, SVG Export Plug-In . SVG Version: 6.00 Build 0)  -->
<svg version="1.1" id="Capa_1" xmlns="http://www.w3.org/2000/svg" xmlns:xlink="http://www.w3.org/1999/xlink" x="0px" y="0px"
	 viewBox="0 0 48.1 27.5" style="enable-background:new 0 0 48.1 27.5;" xml:space="preserve">
<style type="text/css">
	.st0{fill:#FFFFFF;}
</style>
<path class="st0" d="M23.8,19.5c4-3.9,7.6-7.5,11.3-11.1c2.3-2.3,4.6-4.7,6.9-7c1.8-1.8,3.7-1.9,5.2-0.4c1.4,1.4,1.2,3.6-0.4,5.2
	c-6.6,6.6-13.2,13.3-19.9,19.9c-1.9,1.9-3.7,1.9-5.5,0C14.6,19.5,8,12.9,1.4,6.2C-0.3,4.5-0.4,2.4,1,1c1.5-1.5,3.4-1.4,5.2,0.4
	c5.5,5.5,11,11,16.4,16.5C23,18.4,23.3,18.9,23.8,19.5z"/>
</svg>
