<?xml version="1.0" encoding="utf-8"?>
<!-- Generator: Adobe Illustrator 26.2.1, SVG Export Plug-In . SVG Version: 6.00 Build 0)  -->
<svg version="1.1" id="Capa_1" xmlns="http://www.w3.org/2000/svg" xmlns:xlink="http://www.w3.org/1999/xlink" x="0px" y="0px"
	 viewBox="0 0 201.3 83.7" style="enable-background:new 0 0 201.3 83.7;" xml:space="preserve">
<style type="text/css">
	.st0{fill:#FFFFFF;}
	.st1{fill:#173D87;}
</style>
<g>
	<g>
		<path class="st0" d="M16.8,76.4v-0.8l2.8,0v2.5c-0.4,0.3-0.9,0.6-1.3,0.8c-0.5,0.2-0.9,0.3-1.4,0.3c-0.7,0-1.3-0.1-1.8-0.4
			c-0.5-0.3-0.9-0.7-1.2-1.2c-0.3-0.5-0.4-1.1-0.4-1.8c0-0.7,0.1-1.3,0.4-1.8s0.7-1,1.2-1.3c0.5-0.3,1.1-0.4,1.8-0.4
			c0.5,0,0.9,0.1,1.3,0.2c0.4,0.2,0.7,0.4,0.9,0.7c0.2,0.3,0.4,0.6,0.5,1.1l-0.8,0.2c-0.1-0.3-0.2-0.6-0.4-0.8
			c-0.1-0.2-0.4-0.4-0.6-0.5C17.5,73,17.2,73,16.8,73c-0.4,0-0.8,0.1-1.1,0.2s-0.5,0.3-0.7,0.5c-0.2,0.2-0.3,0.4-0.4,0.7
			c-0.2,0.4-0.3,0.9-0.3,1.3c0,0.6,0.1,1.1,0.3,1.5c0.2,0.4,0.5,0.7,0.9,0.9c0.4,0.2,0.8,0.3,1.3,0.3c0.4,0,0.8-0.1,1.1-0.2
			c0.4-0.1,0.6-0.3,0.8-0.5v-1.2H16.8z"/>
		<path class="st0" d="M25.3,79v-6.7h3c0.6,0,1,0.1,1.4,0.2c0.3,0.1,0.6,0.3,0.7,0.6c0.2,0.3,0.3,0.6,0.3,1c0,0.5-0.2,0.9-0.5,1.2
			c-0.3,0.3-0.8,0.5-1.4,0.6c0.2,0.1,0.4,0.2,0.5,0.3c0.3,0.2,0.5,0.5,0.7,0.9l1.2,1.8H30l-0.9-1.4c-0.3-0.4-0.5-0.7-0.6-0.9
			s-0.3-0.4-0.4-0.4c-0.1-0.1-0.3-0.1-0.4-0.2c-0.1,0-0.3,0-0.5,0h-1v3H25.3z M26.1,75.3H28c0.4,0,0.7,0,0.9-0.1
			c0.2-0.1,0.4-0.2,0.5-0.4c0.1-0.2,0.2-0.4,0.2-0.6c0-0.3-0.1-0.6-0.3-0.8c-0.2-0.2-0.6-0.3-1.1-0.3h-2.1V75.3z"/>
		<path class="st0" d="M40.7,72.3h0.9v3.9c0,0.7-0.1,1.2-0.2,1.6c-0.2,0.4-0.4,0.7-0.8,1c-0.4,0.2-0.9,0.4-1.6,0.4
			c-0.6,0-1.1-0.1-1.5-0.3c-0.4-0.2-0.7-0.5-0.9-0.9c-0.2-0.4-0.3-1-0.3-1.7v-3.9h0.9v3.9c0,0.6,0.1,1,0.2,1.3
			c0.1,0.3,0.3,0.5,0.6,0.6c0.3,0.2,0.6,0.2,1,0.2c0.7,0,1.1-0.1,1.4-0.4c0.3-0.3,0.4-0.9,0.4-1.7V72.3z"/>
		<path class="st0" d="M47.3,79v-6.7h2.5c0.4,0,0.8,0,1,0.1c0.3,0.1,0.6,0.2,0.8,0.3c0.2,0.2,0.4,0.4,0.5,0.6s0.2,0.6,0.2,0.9
			c0,0.6-0.2,1.1-0.5,1.4c-0.4,0.4-1,0.6-2,0.6h-1.7V79H47.3z M48.2,75.5h1.7c0.6,0,1-0.1,1.2-0.3c0.2-0.2,0.4-0.5,0.4-0.9
			c0-0.3-0.1-0.5-0.2-0.7c-0.1-0.2-0.3-0.3-0.6-0.4c-0.1,0-0.4-0.1-0.8-0.1h-1.7V75.5z"/>
		<path class="st0" d="M57.5,75.7c0-1.1,0.3-2,0.9-2.6c0.6-0.6,1.4-0.9,2.3-0.9c0.6,0,1.2,0.1,1.7,0.4c0.5,0.3,0.9,0.7,1.1,1.2
			c0.3,0.5,0.4,1.1,0.4,1.8c0,0.7-0.1,1.3-0.4,1.8c-0.3,0.5-0.7,0.9-1.2,1.2c-0.5,0.3-1,0.4-1.6,0.4c-0.6,0-1.2-0.2-1.7-0.5
			c-0.5-0.3-0.9-0.7-1.1-1.2C57.7,76.9,57.5,76.3,57.5,75.7z M58.4,75.8c0,0.8,0.2,1.4,0.7,1.9c0.4,0.5,1,0.7,1.6,0.7
			c0.7,0,1.2-0.2,1.6-0.7c0.4-0.5,0.6-1.1,0.6-2c0-0.5-0.1-1-0.3-1.4c-0.2-0.4-0.5-0.7-0.8-0.9c-0.4-0.2-0.8-0.3-1.2-0.3
			c-0.6,0-1.2,0.2-1.6,0.6C58.7,74,58.4,74.7,58.4,75.8z"/>
		<path class="st0" d="M76.4,79v-6.7h0.9V79H76.4z"/>
		<path class="st0" d="M83.1,79v-6.7H84l3.5,5.3v-5.3h0.8V79h-0.9l-3.5-5.3V79H83.1z"/>
		<path class="st0" d="M94.1,79v-6.7h1.3L97,77c0.1,0.4,0.3,0.8,0.3,1c0.1-0.2,0.2-0.6,0.4-1.1l1.6-4.7h1.2V79h-0.9v-5.6L97.7,79
			h-0.8l-1.9-5.7V79H94.1z"/>
		<path class="st0" d="M105.9,75.7c0-1.1,0.3-2,0.9-2.6c0.6-0.6,1.4-0.9,2.3-0.9c0.6,0,1.2,0.1,1.7,0.4c0.5,0.3,0.9,0.7,1.1,1.2
			c0.3,0.5,0.4,1.1,0.4,1.8c0,0.7-0.1,1.3-0.4,1.8c-0.3,0.5-0.7,0.9-1.2,1.2c-0.5,0.3-1,0.4-1.6,0.4c-0.6,0-1.2-0.2-1.7-0.5
			c-0.5-0.3-0.9-0.7-1.1-1.2C106,76.9,105.9,76.3,105.9,75.7z M106.8,75.8c0,0.8,0.2,1.4,0.7,1.9c0.4,0.5,1,0.7,1.6,0.7
			c0.7,0,1.2-0.2,1.6-0.7c0.4-0.5,0.6-1.1,0.6-2c0-0.5-0.1-1-0.3-1.4c-0.2-0.4-0.5-0.7-0.8-0.9c-0.4-0.2-0.8-0.3-1.2-0.3
			c-0.6,0-1.2,0.2-1.6,0.6C107,74,106.8,74.7,106.8,75.8z"/>
		<path class="st0" d="M117.7,79v-6.7h2.5c0.5,0,0.9,0.1,1.2,0.2c0.3,0.1,0.6,0.3,0.7,0.6c0.2,0.3,0.3,0.6,0.3,0.9
			c0,0.3-0.1,0.6-0.2,0.8c-0.2,0.3-0.4,0.5-0.7,0.6c0.4,0.1,0.7,0.3,0.9,0.6c0.2,0.3,0.3,0.6,0.3,1c0,0.3-0.1,0.6-0.2,0.9
			c-0.1,0.3-0.3,0.5-0.5,0.6c-0.2,0.1-0.4,0.3-0.7,0.3c-0.3,0.1-0.7,0.1-1.1,0.1H117.7z M118.5,75.1h1.4c0.4,0,0.7,0,0.8-0.1
			c0.2-0.1,0.4-0.2,0.5-0.3c0.1-0.2,0.2-0.4,0.2-0.6c0-0.2-0.1-0.4-0.2-0.6c-0.1-0.2-0.3-0.3-0.5-0.3c-0.2-0.1-0.5-0.1-1-0.1h-1.3
			V75.1z M118.5,78.2h1.7c0.3,0,0.5,0,0.6,0c0.2,0,0.4-0.1,0.5-0.2c0.1-0.1,0.2-0.2,0.3-0.4c0.1-0.2,0.1-0.4,0.1-0.6
			c0-0.2-0.1-0.5-0.2-0.7c-0.1-0.2-0.3-0.3-0.5-0.4c-0.2-0.1-0.6-0.1-1-0.1h-1.5V78.2z"/>
		<path class="st0" d="M128.4,79v-6.7h0.9V79H128.4z"/>
		<path class="st0" d="M135,79v-6.7h0.9v5.9h3.3V79H135z"/>
		<path class="st0" d="M144.7,79v-6.7h0.9V79H144.7z"/>
		<path class="st0" d="M150.7,79l2.6-6.7h1l2.7,6.7h-1l-0.8-2h-2.8l-0.7,2H150.7z M152.6,76.3h2.3l-0.7-1.9c-0.2-0.6-0.4-1-0.5-1.4
			c-0.1,0.4-0.2,0.9-0.4,1.3L152.6,76.3z"/>
		<path class="st0" d="M161.9,79v-6.7h3c0.6,0,1,0.1,1.4,0.2s0.6,0.3,0.7,0.6c0.2,0.3,0.3,0.6,0.3,1c0,0.5-0.2,0.9-0.5,1.2
			c-0.3,0.3-0.8,0.5-1.4,0.6c0.2,0.1,0.4,0.2,0.5,0.3c0.3,0.2,0.5,0.5,0.7,0.9l1.2,1.8h-1.1l-0.9-1.4c-0.3-0.4-0.5-0.7-0.6-0.9
			s-0.3-0.4-0.4-0.4c-0.1-0.1-0.3-0.1-0.4-0.2c-0.1,0-0.3,0-0.5,0h-1v3H161.9z M162.8,75.3h1.9c0.4,0,0.7,0,0.9-0.1
			c0.2-0.1,0.4-0.2,0.5-0.4c0.1-0.2,0.2-0.4,0.2-0.6c0-0.3-0.1-0.6-0.3-0.8c-0.2-0.2-0.6-0.3-1.1-0.3h-2.1V75.3z"/>
		<path class="st0" d="M173.1,79v-6.7h0.9V79H173.1z"/>
		<path class="st0" d="M179.5,75.7c0-1.1,0.3-2,0.9-2.6c0.6-0.6,1.4-0.9,2.3-0.9c0.6,0,1.2,0.1,1.7,0.4c0.5,0.3,0.9,0.7,1.1,1.2
			c0.3,0.5,0.4,1.1,0.4,1.8c0,0.7-0.1,1.3-0.4,1.8c-0.3,0.5-0.7,0.9-1.2,1.2c-0.5,0.3-1,0.4-1.6,0.4c-0.6,0-1.2-0.2-1.7-0.5
			c-0.5-0.3-0.9-0.7-1.1-1.2C179.7,76.9,179.5,76.3,179.5,75.7z M180.5,75.8c0,0.8,0.2,1.4,0.7,1.9c0.4,0.5,1,0.7,1.6,0.7
			c0.7,0,1.2-0.2,1.6-0.7c0.4-0.5,0.6-1.1,0.6-2c0-0.5-0.1-1-0.3-1.4c-0.2-0.4-0.5-0.7-0.8-0.9c-0.4-0.2-0.8-0.3-1.2-0.3
			c-0.6,0-1.2,0.2-1.6,0.6C180.7,74,180.5,74.7,180.5,75.8z"/>
	</g>
	<g>
		<g>
			<g>
				<path class="st1" d="M59.4,17.4c26.7-0.4,56.6-0.4,83.2,0C116,17.8,86.1,17.8,59.4,17.4L59.4,17.4z"/>
			</g>
			<path class="st1" d="M77,17.2h48L102.7,0c-1-0.7-2.3-0.7-3.3,0L77,17.2z"/>
		</g>
	</g>
	<path class="st1" d="M0,68.8c63.9-0.5,135.5-0.5,199.4,0C135.5,69.3,63.9,69.3,0,68.8L0,68.8z"/>
	<path class="st1" d="M0,82.4c63.9-0.5,135.5-0.5,199.4,0C135.5,82.9,63.9,82.9,0,82.4L0,82.4z"/>
	<polygon class="st1" points="40.2,20.4 25.5,47.3 9.9,20.4 9.2,20.4 0.6,63.1 9.4,63.1 13.1,43.9 25,64.6 25.6,64.6 36.7,44.2 
		40.2,63.1 49.6,63.1 41,20.4 	"/>
	<path class="st1" d="M83.2,26.7c-2-2-4.3-3.6-6.9-4.7c-2.6-1.1-5.3-1.6-8.1-1.6c-2.8,0-5.5,0.5-8.1,1.6c-2.6,1.1-4.8,2.6-6.8,4.6
		c-2.1,2.1-3.6,4.5-4.7,7.2c-1.1,2.7-1.6,5.5-1.6,8.6c0,3.1,0.5,5.9,1.6,8.6s2.6,5,4.7,7.1c2,2,4.2,3.6,6.8,4.7
		c2.6,1.1,5.2,1.6,8,1.6c3.3,0,6.4-0.7,9.3-2.2c2.9-1.5,5.4-3.6,7.4-6.2c1.4-1.9,2.5-4,3.2-6.2c0.7-2.3,1.1-4.7,1.1-7.3
		c0-3.1-0.5-6-1.6-8.6C86.7,31.1,85.2,28.8,83.2,26.7z M76,51.5c-2.1,2.4-4.7,3.6-7.8,3.6c-3.1,0-5.7-1.2-7.8-3.6
		c-2.1-2.4-3.1-5.4-3.1-9c0-3.6,1-6.7,3.1-9.1c2.1-2.4,4.7-3.6,7.8-3.6c3.1,0,5.7,1.2,7.8,3.6c2.1,2.4,3.1,5.4,3.1,9.1
		C79.2,46,78.1,49.1,76,51.5z"/>
	<polygon class="st1" points="117,44.5 91.3,20.4 90.4,20.4 90.4,63.1 99.4,63.1 99.4,40.6 125.2,64.7 126.1,64.7 126.1,21.8 
		117,21.8 	"/>
	<path class="st1" d="M147.2,48.6h7.8v6c-0.9,0.3-1.9,0.5-2.7,0.7c-0.9,0.2-1.7,0.2-2.6,0.2c-3.7,0-6.7-1.2-9.1-3.7
		c-2.3-2.5-3.5-5.7-3.5-9.6c0-3.7,1.2-6.8,3.6-9.3c2.4-2.5,5.5-3.7,9.2-3.7c2.1,0,4.1,0.5,6,1.4c1.9,0.9,3.8,2.3,5.7,4.3l1.1-10.3
		c-2-1.3-4.1-2.4-6.4-3c-2.2-0.7-4.5-1-7-1c-6.4,0-11.8,2.1-16,6.3c-4.2,4.2-6.3,9.5-6.3,15.8c0,6.3,2.1,11.6,6.2,15.7
		c4.1,4.1,9.4,6.2,15.7,6.2c2.5,0,5-0.4,7.6-1.1c2.6-0.7,5.3-1.7,8.1-3.1V40.2h-17.6V48.6z"/>
	<path class="st1" d="M192.6,45.5c0,3.2-0.7,5.7-2.1,7.4c-1.4,1.7-3.4,2.5-6,2.5c-2.7,0-4.7-0.9-6.1-2.7c-1.3-1.8-2-4.5-2-8.2V21.8
		h-9.7v23.8c0,6,1.5,10.6,4.6,13.9c3,3.3,7.3,5,12.8,5c5.4,0,9.7-1.7,12.7-5c3.1-3.3,4.6-8,4.6-13.9V31h-8.8V45.5z"/>
	<path class="st0" d="M192.6,22v9h8.8v-0.7C201.2,25.7,197.3,22,192.6,22z"/>
</g>
</svg>
