<?xml version="1.0" encoding="utf-8"?>
<!-- Generator: Adobe Illustrator 26.2.1, SVG Export Plug-In . SVG Version: 6.00 Build 0)  -->
<svg version="1.1" id="Capa_1" xmlns="http://www.w3.org/2000/svg" xmlns:xlink="http://www.w3.org/1999/xlink" x="0px" y="0px"
	 viewBox="0 0 498.5 99.2" style="enable-background:new 0 0 498.5 99.2;" xml:space="preserve">
<style type="text/css">
	.st0{fill:#171A3E;}
	.st1{fill:#173D87;}
	.st2{fill:#487EBB;}
</style>
<g>
	<path class="st0" d="M140.3,97.5c-3.4,0-6.9,0-10.3,0c-2.1-0.2-3.8-1.9-4-4.2c0-1.7,0.2-3.4,0.6-5c0.8-4.8,1.7-9.7,2.5-14.5
		s1.7-9.7,2.7-14.7c1-5,1.7-10.3,2.7-15.4c1-5.1,1.9-10.5,2.9-15.8c0.6-3.4,1.1-6.9,1.9-10.3c0-0.6,0.2-1,0.4-1.5
		c0.2-0.6,0.6-1.1,1.5-1.1c1,0,1.1,0.6,1.3,1.3c0.2,1.1,0.6,2.3,0.8,3.4c0.8,5,1.7,9.9,2.5,14.9c1,5.5,1.7,11.3,2.7,16.8
		c1,6.3,2.1,12.6,3.1,18.9c1,5.5,1.9,11.3,2.7,16.8c0.4,2.1,0.8,4.2,1,6.3c0.2,2.3-1.7,4.2-3.8,4.4c0,0,0,0-0.2,0
		C147.3,97.7,143.9,97.5,140.3,97.5L140.3,97.5z"/>
	<path class="st0" d="M46.4,1.7h10.1c2.3,0,4.2,1.9,4.2,4.2c0,2.1-0.4,4-0.8,5.9c-1,5.5-1.9,11.1-2.9,16.6l-2.7,14.7
		c-1,5.1-1.9,10.3-2.7,15.4c-0.8,4.8-1.7,9.7-2.5,14.5c-0.6,3.1-1.1,6.1-1.7,9.2c0,0.4-0.2,0.8-0.4,1.1c-0.2,0.8-1,1-1.7,0.8
		c-0.4-0.2-0.6-0.4-0.8-0.8c-0.4-1.3-0.8-2.5-0.8-3.8c-1-5.7-1.9-11.3-2.9-17c-1-5.1-1.7-10.5-2.5-15.6c-0.8-5.1-1.7-10.3-2.7-15.6
		c-0.8-5-1.5-9.7-2.3-14.7c-0.4-3.1-1-5.9-1.5-9c-0.6-1.9,0-4,1.5-5.1c0.8-0.6,1.5-1,2.5-1L46.4,1.7z"/>
	<path class="st1" d="M14.9,96.2c-3.2,0-6.5,0-9.7,0c-2.5,0.2-4.6-1.7-4.8-4.2c0-0.2,0-0.4,0-0.6c0.2-1.7,0.4-3.2,0.8-4.8L3.9,71
		c1-5.5,1.9-10.9,2.9-16.4s1.9-11.3,2.9-16.8c1-5.1,1.9-10.3,2.9-15.4c0.4-2.1,0.8-4.2,1.1-6.3c0.4-0.8,0.4-1.1,0.6-1.5
		c0.2-0.6,0.8-1.1,1.3-1.1c0.8,0,1.1,0.6,1.3,1.1c0.2,1.1,0.6,2.3,0.8,3.4c1.1,6.3,2.1,12.6,3.1,19.1c1,5.5,1.7,11.3,2.7,16.8
		c0.8,5.1,1.7,10.5,2.7,15.6l2.1,13.4c0.4,2.3,0.8,4.6,1.1,6.9c0.2,1,0.2,1.7,0,2.7c-0.2,2.1-2.1,3.6-4.2,3.6L14.9,96.2z"/>
	<path class="st1" d="M172.1,1.7c3.4,0,6.7,0,10.1,0c2.3,0,4.2,1.9,4.4,4.2c0,1.9-0.4,3.8-0.8,5.7c-1,5.9-2.1,11.8-3.1,17.7
		l-3.1,17.5c-1,5.5-1.9,11.1-2.9,16.4c-1.1,6.3-2.3,12.6-3.4,18.9c0,0.4-0.2,0.6-0.2,1c0,0.8-0.8,1.3-1.5,1.1
		c-0.6,0-1.1-0.6-1.1-1.1c-0.4-1.1-0.6-2.3-0.8-3.4c-1-5.3-1.7-10.7-2.7-16c-0.8-5.1-1.7-10.3-2.5-15.4c-1-5.5-1.9-11.3-2.7-16.8
		l-2.5-15.6c-0.4-2.7-1-5.5-1.3-8.2c-0.4-1.7,0-3.6,1.3-4.8c0.8-0.8,1.7-1.1,2.7-1.1C165.2,1.7,168.7,1.7,172.1,1.7L172.1,1.7z"/>
	<path class="st2" d="M109.7,1.5h9.7c2.5-0.2,4.4,1.7,4.6,4c0,0.2,0,0.4,0,0.6c-0.2,2.3-0.4,4.4-1,6.5c-1.1,6.3-2.1,12.6-3.2,18.9
		c-1,5.1-1.9,10.3-2.9,15.4c-1.1,6.7-2.3,13.2-3.4,19.8c-0.8,5-1.7,9.9-2.5,14.9c-0.2,0.6-0.2,1.1-0.4,1.5c-0.2,0.6-0.8,1-1.3,1
		c-0.6,0-1.1-0.4-1.3-1c-0.4-1.7-0.8-3.4-1-5.1c-0.6-3.8-1.1-7.6-1.9-11.3c-0.8-4.6-1.5-9.2-2.3-13.7l-2.5-15.3l-2.3-13.5
		c-0.8-4.4-1.5-9-2.3-13.4c-0.6-1.9-0.6-3.6-0.4-5.5c0.4-2.1,1.9-3.6,4-3.6h10.3V1.5z"/>
	<path class="st2" d="M78.5,96.2c-3.2,0-6.5,0-9.5,0c-2.5,0.2-4.8-1.7-5-4.2c0-0.4,0-1,0.2-1.3c0.8-4.4,1.5-8.8,2.3-13.2l2.7-15.6
		c1.3-6.9,2.5-13.7,3.6-20.6c1-5.5,1.9-11.3,2.9-16.8c0.6-2.9,1-5.7,1.5-8.6c0-0.4,0.2-0.8,0.4-1.1c0.2-0.6,0.6-1,1.3-1
		c0.8,0,1.1,0.6,1.3,1.3c0.4,1.9,0.8,3.8,1.1,5.7c0.8,4.2,1.3,8.4,2.1,12.4c1,5.5,1.7,11.3,2.7,16.8s1.9,11.1,2.7,16.4
		c1,6.3,2.1,12.8,3.1,19.1c0.4,2.1,0.8,4.2,1,6.3c0.2,2.5-1.7,4.4-4.2,4.6c-0.2,0-0.2,0-0.4,0L78.5,96.2z"/>
	<path class="st0" d="M280.5,23.1c-0.8,1.5-1.3,2.9-2.1,4.4c-1.9,4-3.8,8.2-5.7,12.2c-0.6,1.5-1.7,2.7-3.2,3.1
		c-1.7,0.4-3.4-0.4-4-1.9c-1.7-3.4-3.2-6.9-5-10.3c-1.1-2.3-2.1-4.6-3.2-6.7c-0.2-0.2-0.2-0.6-0.4-0.8c-0.2,0.2-0.2,0.4-0.2,0.8
		c0,5.9,0,11.8,0,17.5c0,0.8-0.2,1.1-1,1c-1.3,0-2.7,0-4.2,0c-0.4,0-0.6-0.2-0.6-0.6c0-8,0-16,0-24c0-1.5,1-2.7,2.3-3.2
		c2.7-1.3,5.7-0.4,7.1,2.3c0,0.2,0.2,0.4,0.2,0.6l7.8,17.2c0,0.2,0.2,0.4,0.2,0.6c0.4-1,1-1.9,1.3-2.9c2.3-5,4.8-10.1,6.9-15.3
		c1.1-2.7,4.4-4,7.1-2.9c0,0,0.2,0,0.2,0.2c1.3,0.6,2.1,1.7,2.3,3.1c0,0.4,0,0.8,0,1.1c0,7.6,0,15.3,0,22.7c0,0.8-0.2,1-1,1
		c-1.3,0-2.9,0-4.2,0c-0.6,0-0.8-0.2-0.8-0.8c0-5.9,0-12,0-17.9C280.5,23.3,280.5,23.1,280.5,23.1L280.5,23.1z"/>
	<path class="st0" d="M239.1,67.5c-0.8,1.5-1.5,3.1-2.1,4.4l-5.5,12c-0.4,1-1,1.7-1.7,2.5c-1.5,1.3-4,1.3-5.3-0.2
		c-0.2-0.2-0.4-0.4-0.6-0.8c-1.3-2.7-2.5-5.1-3.8-7.8c-1.5-3.1-2.9-6.1-4.4-9.2c-0.2-0.2-0.2-0.6-0.6-0.8v1.9c0,5.5,0,11.1,0,16.6
		c0,0.8-0.2,1-1,1c-1.3,0-2.9,0-4.2,0c-0.6,0-0.8-0.2-0.8-0.8c0-7.8,0-15.8,0-23.7c0-1.7,1.1-3.2,2.7-3.8c2.7-1.1,5.7,0.2,6.9,3.1
		c2.5,5.9,5.3,11.8,8,17.5c0.4,0,0.4-0.4,0.6-0.8c2.7-5.7,5.3-11.4,7.8-17.2c1.1-2.7,4.4-4,7.1-2.9c0.2,0,0.4,0.2,0.6,0.2
		c1.3,0.8,2.1,2.1,2.1,3.6v22.7c0,1.7,0,1.7-1.7,1.7c-1.1,0-2.3,0-3.4,0c-0.6,0-0.8-0.2-0.8-0.8c0-5.9,0-11.8,0-17.5
		C239.3,68.1,239.3,67.9,239.1,67.5z"/>
	<path class="st0" d="M383.6,67.7l-5.3,11.4c-0.8,1.9-1.7,3.6-2.5,5.5c-0.8,2.1-3.1,3.2-5.3,2.5c-1-0.4-1.7-1-2.1-1.9
		c-1.3-2.9-2.7-5.7-4-8.6c-1.3-2.9-2.7-5.7-4-8.6c0-0.2-0.2-0.4-0.2-0.4c-0.4,0.2-0.2,0.6-0.2,0.8c0,5.9,0,11.8,0,17.5
		c0,0.8-0.2,1-1,1c-1.3,0-2.7,0-4,0c-0.8,0-1-0.2-1-1c0-6.5,0-13,0-19.3c0-1.3,0-2.9,0-4.2c0-1.5,1-3.1,2.5-3.6
		c2.7-1.3,5.7-0.2,7.1,2.5c0,0,0,0.2,0.2,0.2c2.7,5.9,5.3,11.8,8,17.9c0.4-0.4,0.8-1,0.8-1.5c2.5-5.5,5.1-11.1,7.6-16.8
		c1.3-2.7,4.6-3.6,7.1-2.3c0.2,0.2,0.6,0.4,0.8,0.4c1,0.8,1.5,2.1,1.5,3.4c0,6.3,0,12.6,0,18.9c0,1.5,0,2.9,0,4.4c0,0.6-0.2,1-0.8,1
		c-1.3,0-2.9,0-4.2,0c-0.8,0-0.8-0.2-0.8-1c0-5.7,0-11.4,0-17.2L383.6,67.7L383.6,67.7z"/>
	<path class="st0" d="M344.2,28.1c1.5,0.6,2.5,2.1,2.7,3.8c0.2,1.7,0.2,3.2,0,5c-0.4,3.1-3.1,5.3-6.3,5.3c-0.8,0-1.5,0-2.3,0H322
		c-0.6,0-1,0-1-0.8c0-9,0-17.7,0-26.7c0-0.6,0-0.8,0.8-0.8h18.3c1,0,1.9,0.2,2.9,0.6c2.1,0.8,3.6,2.9,3.6,5.1c0.2,1.3,0.2,2.9,0,4.2
		C346.8,25.6,345.7,27.3,344.2,28.1z M332.9,37.2h5c0.8,0,1.3-0.2,1.9-0.6c1.3-1.5,1.3-3.8,0.2-5.3c-0.6-0.4-1.5-0.8-2.3-0.6
		c-3.4,0-6.7,0-10.1,0c-0.6,0-0.8,0.2-0.8,0.6c0,1.7,0,3.6,0,5.3c0,0.6,0.2,0.8,0.8,0.8C329.7,37.2,331.4,37.2,332.9,37.2z
		 M332.9,25.6h4.8c1,0,1.9-0.2,2.7-1c0.8-1.5,0.8-3.4-0.2-5c-0.6-0.6-1.5-1-2.3-0.8h-10.1c-0.6,0-0.6,0.2-0.6,0.6c0,1.7,0,3.6,0,5.5
		c0,0.6,0.2,0.6,0.6,0.6C329.7,25.6,331.4,25.6,332.9,25.6L332.9,25.6z"/>
	<path class="st0" d="M293.8,75.7l12.6,10.7c-0.2,0.4-0.4,0.2-0.6,0.2c-2.1,0-4.2,0-6.1,0c-0.6,0-1-0.2-1.5-0.6
		c-3.8-3.2-7.6-6.5-11.4-9.7c-0.2-0.2-0.2-0.4-0.6-0.2v3.8c0,1.9,0,4,0,5.9c0,0.6-0.2,0.8-0.8,0.8c-1.5,0-2.9,0-4.4,0
		c-0.8,0-1-0.2-1-1c0-3.1,0-6.1,0-9c0-5.9,0-11.8,0-17.5c0-0.6,0-0.8,0.8-0.8c5.9,0,11.8,0,17.5,0c1.5,0,2.9,0.4,4.2,1
		c1.9,0.8,3.1,2.9,3.1,5c0,1.7,0,3.4,0,5.1c0.2,2.7-1.7,5-4.2,5.7c-1.5,0.4-3.1,0.6-4.6,0.6H293.8L293.8,75.7z M286.2,72.1
		c1-0.6,1.9-1,3.1-1h7.1c0.6,0,1.1,0,1.5-0.2c1.1,0,1.9-0.8,1.9-1.9c0-0.2,0-0.2,0-0.4c0-1,0-1.9,0-2.9c0.2-1.1-0.6-2.1-1.7-2.3
		h-0.2c-0.6-0.2-1.1-0.2-1.7-0.2h-7.2c-0.8,0-2.1-0.4-2.5,0.2c-0.4,0.6-0.2,1.5-0.2,2.5C286.2,68.1,286.2,70,286.2,72.1L286.2,72.1z
		"/>
	<path class="st0" d="M442.4,31.1L455.2,42c-0.2,0.4-0.6,0.2-0.8,0.2h-6.1c-0.6,0-1.1-0.2-1.5-0.6l-11.4-9.9l-0.2-0.2
		c-0.2,0.2-0.2,0.6-0.2,1c0,3.1,0,5.9,0,9c0,0.6-0.2,0.8-0.8,0.8c-1.5,0-3.1,0-4.6,0c-0.6,0-0.8-0.2-0.8-0.8V14.5
		c0-0.6,0.2-0.6,0.6-0.6c5.9,0,11.6,0,17.5,0c1.3,0,2.9,0.2,4,0.8c1.9,0.8,3.2,2.7,3.2,4.8s0.2,4.2,0,6.1c-0.2,2.1-1.5,4-3.6,4.8
		c-1.3,0.6-2.7,0.8-4,0.8C446.6,31.1,442.4,31.1,442.4,31.1z M435.1,27.7c1.1-0.8,2.5-1.1,3.8-1h6.9c0.6,0,1,0,1.5-0.2
		c0.8-0.2,1.3-1,1.5-1.7c0-1,0-1.9,0-2.9c0-1.9-0.6-2.7-2.5-2.9c-2.9-0.2-5.7,0-8.8-0.2c-0.8,0-1.7-0.4-2.1,0.2s-0.2,1.5-0.2,2.1
		C435.1,23.3,435.1,25.4,435.1,27.7z"/>
	<path class="st0" d="M240.4,34.4V18c0-1,0-1.9,0-2.9s0.2-1,1-1c1.3,0,2.7,0,4.2,0c0.8,0,0.8,0.2,0.8,0.8c0,6.1,0,12.2,0,18.1
		c0,1.7-0.2,3.2,0,4.8c0.2,2.5-1.7,4.6-4,4.8c-0.6,0-1,0-1.3-0.2c-1.3-0.2-2.3-0.8-3.1-1.9c-2.9-4.8-5.9-9.5-8.8-14.5
		c-0.8-1.1-1.5-2.5-2.3-3.8c-0.2-0.2-0.2-0.4-0.4-0.4c-0.2,0.2,0,0.6,0,1c0,6.1,0,12.4,0,18.5c0,0.6-0.2,1-0.8,0.8
		c-1.3,0-2.9,0-4.2,0c-0.6,0-0.8,0-0.8-0.8c0-7.8,0-15.8,0-23.7c-0.2-2.1,1.5-3.8,3.6-4c2.1-0.4,4.2,0.6,5.3,2.5
		c3.4,5.9,7.1,11.8,10.7,17.7L240.4,34.4L240.4,34.4z"/>
	<path class="st0" d="M291.1,28.1c0-2.3,0.2-4.6,0-6.9c-0.2-3.6,2.5-6.7,6.1-7.1c0,0,0,0,0.2,0c1.7-0.2,3.6-0.2,5.5-0.2
		c2.5-0.2,5.1,0,7.6,0.2c1.9,0.2,3.8,1.1,5,2.7c0.8,1.1,1.1,2.3,1.1,3.6c0,5.1,0,10.3,0,15.4c0,2.7-1.7,5.1-4.4,5.7
		c-1.1,0.4-2.5,0.6-3.6,0.6c-3.2,0-6.7,0-9.9,0c-1.9,0-3.6-0.6-5.1-1.7c-1.3-1.1-2.3-2.9-2.3-4.6C291.1,33.2,291.1,30.7,291.1,28.1z
		 M310.4,28.3L310.4,28.3c0-2.3,0-4.4,0-6.7c0-1.7-0.8-2.3-2.3-2.5c-2.7-0.2-5.5-0.2-8.2,0c-1.9,0.2-2.7,1-2.7,2.9
		c0,1.5,0,3.1,0,4.6v7.6c0,1.9,0.8,2.9,2.7,3.1c2.7,0.2,5.3,0.2,8,0c2.1-0.2,2.7-1,2.7-3.1C310.6,32.1,310.4,30.2,310.4,28.3
		L310.4,28.3z"/>
	<path class="st0" d="M275.3,86.8c-0.2,0-0.6,0-0.8,0c-1.9,0.4-2.9-0.4-3.4-2.3c-0.4-1.3-1.1-2.7-1.7-4c-0.2-0.4-0.6-0.6-0.8-0.6
		c-4,0-7.8,0-11.6,0c-0.4,0-0.8,0.2-1,0.6c-0.8,1.9-1.7,3.6-2.5,5.5c-0.2,0.4-0.6,0.8-1.1,0.6c-1.7,0-3.2,0-5,0
		c-0.8,0-0.8-0.2-0.6-0.8c2.9-6.1,5.5-12.4,8.4-18.5l2.9-6.1c1.1-2.5,4.2-3.6,6.7-2.3c1,0.6,1.9,1.3,2.3,2.3
		c3.6,8.2,7.4,16.4,11.1,24.6c0.4,0.6,0.4,1-0.6,1C276.6,86.8,276.1,86.8,275.3,86.8z M262.3,64.9c-1.5,3.6-2.9,6.9-4.2,10.3h8.4
		c0.6,0,0.4-0.4,0.2-0.6c-1-1.9-1.9-4-2.7-5.9C263.7,67.5,263.1,66.4,262.3,64.9L262.3,64.9z"/>
	<path class="st0" d="M407.1,79.9c-1.9,0-3.8,0-5.7,0c-0.4,0-1,0.2-1.1,0.8c-0.8,1.9-1.5,3.6-2.3,5.3c-0.2,0.4-0.6,0.8-1.1,0.8
		c-1.7,0-3.4,0-5,0c-0.6,0-0.8,0-0.4-0.8c2.1-4.6,4.2-9.3,6.3-13.9c1.5-3.6,3.2-7.2,5-10.7c1.1-2.5,4.2-3.6,6.7-2.5
		c1.1,0.6,1.9,1.3,2.5,2.5c3.6,8.2,7.4,16.4,11.1,24.6c0.4,1,0.4,1-0.6,1c-1.7,0-3.2,0-5,0c-0.4,0-0.8-0.2-1-0.6
		c-0.8-1.9-1.7-3.6-2.5-5.5c-0.2-0.4-0.4-0.6-0.8-0.6L407.1,79.9z M406.9,65.1l-4,9.7c-0.2,0.4,0,0.6,0.4,0.6h7.8
		c0.4,0,0.6,0,0.4-0.6c-0.2-0.6-0.4-1-0.6-1.3L406.9,65.1z"/>
	<path class="st0" d="M424.1,42.2c-0.8,0-1.5,0-2.3,0c-0.4,0-1-0.2-1.1-0.8c-0.8-1.9-1.5-3.6-2.3-5.3c-0.2-0.4-0.6-0.8-1.1-0.8
		c-3.8,0-7.6,0-11.4,0c-0.4,0-1,0.2-1.1,0.8c-0.8,1.9-1.7,3.6-2.5,5.5c-0.2,0.4-0.6,0.6-1,0.6H396c-0.6,0-0.8-0.2-0.4-0.8
		c3.4-7.2,6.7-14.7,9.9-21.9c0.4-1,0.8-1.9,1.1-2.7c0.8-1.7,2.5-2.9,4.4-2.9c1.9-0.2,3.8,1,4.6,2.9c2.3,5.1,4.6,10.3,7.1,15.4
		c1.3,3.1,2.7,6.1,4.2,9.2c0.4,0.8,0.2,1-0.6,1C425.6,42.4,424.8,42.2,424.1,42.2L424.1,42.2z M411.3,20.4c-1.3,3.4-2.7,6.7-4,9.7
		c-0.2,0.4,0,0.6,0.4,0.6h7.8c0.4,0,0.6-0.2,0.4-0.6C414.2,27.1,412.8,23.9,411.3,20.4z"/>
	<path class="st0" d="M498.1,42.2H492c-0.6,0-0.6-0.4-0.8-0.6c-0.8-1.7-1.7-3.6-2.5-5.3c-0.2-0.6-0.6-0.8-1.1-0.8
		c-3.8,0-7.6,0-11.4,0c-0.6,0-1,0.2-1.1,0.8c-0.8,1.7-1.5,3.6-2.3,5.3c-0.2,0.6-0.6,0.8-1.1,0.8c-1.7,0-3.2,0-4.8,0
		c-0.8,0-0.8-0.2-0.6-0.8c2.5-5.3,4.8-10.5,7.2-15.8c1.3-2.9,2.7-5.9,4-8.8c1.1-2.5,4.2-3.4,6.7-2.3c1,0.6,1.7,1.3,2.3,2.3
		c3.8,8.4,7.6,16.8,11.4,25.2C498.1,41.8,498.1,42,498.1,42.2z M481.9,20.4c-1.3,3.4-2.7,6.7-4,9.7c-0.2,0.4,0,0.6,0.4,0.6h7.8
		c0.4,0,0.6-0.2,0.4-0.6c-0.2-0.4-0.6-1.1-0.8-1.7C484.4,25.8,483.2,23.3,481.9,20.4z"/>
	<path class="st0" d="M332.5,75c0,3.6,0,7.2,0,10.9c0,0.6-0.2,1-0.8,0.8c-1.5,0-2.9,0-4.4,0c-0.8,0-1-0.2-1-1c0-7.1,0-14.3,0-21.4
		c0-0.8-0.2-1.1-1.1-1.1c-2.3,0-4.6,0-6.9,0c-0.6,0-0.8-0.2-0.8-0.8c0-1.1,0-2.5,0-3.6c0-0.6,0.2-0.8,0.8-0.8h21.7
		c0.6,0,0.8,0.2,0.8,0.8c0,1.1,0,2.1,0,3.2c0,0.8-0.2,1-1,1c-2.3,0-4.6,0-6.9,0c-0.6,0-0.8,0.2-0.8,0.8
		C332.5,67.7,332.5,71.4,332.5,75z"/>
	<path class="st0" d="M368.4,24.6V34c0,2.3,0.8,3.2,3.2,3.2c2.9,0,5.5,0,8.4,0c1.7,0,3.4,0,5.1,0c0.6,0,0.8,0.2,0.8,0.8
		c0,1.1,0,2.5,0,3.6c0,0.4,0,0.6-0.6,0.6c-5,0-10.1,0-15.1,0c-1.3,0-2.7-0.4-4-1c-2.3-0.8-3.8-2.9-3.6-5.3c0-7.2,0-14.3,0-21.6
		c0-0.6,0.2-0.6,0.8-0.6c1.5,0,3.1,0,4.6,0c0.8,0,1,0.2,1,0.8C368.4,18,368.4,21.2,368.4,24.6z"/>
	<path class="st0" d="M315.7,72.5c0,4.4,0,9,0,13.4c0,0.6-0.2,1-0.8,0.8c-1.5,0-3.1,0-4.6,0c-0.6,0-0.6-0.2-0.6-0.6
		c0-9,0-18.1,0-27.1c0-0.6,0.2-0.8,0.6-0.6c1.5,0,3.1,0,4.6,0c0.8,0,0.8,0.2,0.8,0.8C315.7,63.5,315.7,68.1,315.7,72.5z"/>
	<path class="st0" d="M458.6,28.1c0-4.4,0-9,0-13.4c0-0.6,0.2-1,0.8-0.8c1.5,0,3.1,0,4.6,0c0.6,0,0.8,0,0.8,0.6c0,9,0,18.1,0,27.1
		c0,0.6-0.2,0.8-0.8,0.8c-1.5,0-3.1,0-4.6,0c-0.6,0-0.8-0.2-0.8-0.8C458.8,37,458.6,32.4,458.6,28.1z"/>
	<path class="st0" d="M393.9,28.1c0,4.4,0,9,0,13.4c0,0.6-0.2,0.8-0.8,0.8c-1.5,0-3.1,0-4.6,0c-0.4,0-0.6,0-0.6-0.6
		c0-9,0-17.9,0-26.9c0-0.6,0.2-0.8,0.8-0.8c1.5,0,3.1,0,4.6,0c0.8,0,0.8,0.2,0.8,0.8C393.9,19.1,393.9,23.5,393.9,28.1z"/>
	<path class="st0" d="M343.4,72.5c0-4.4,0-9,0-13.4c0-0.8,0.2-0.8,0.8-0.8c1.5,0,2.9,0,4.4,0c0.6,0,0.8,0,0.8,0.8c0,9,0,17.9,0,26.9
		c0,0.6-0.2,0.8-0.8,0.8c-1.5,0-3.1,0-4.6,0c-0.6,0-0.8-0.2-0.8-0.8C343.4,81.5,343.4,77.1,343.4,72.5L343.4,72.5z"/>
	<path class="st0" d="M209.9,28.1c0-4.6,0-9,0-13.4c0-0.6,0.2-0.8,0.8-0.8c1.5,0,3.1,0,4.6,0c0.6,0,0.6,0.2,0.6,0.6
		c0,9,0,17.9,0,26.9c0,0.4,0,0.8-0.6,0.8c-1.7,0-3.2,0-5,0c-0.6,0-0.6-0.4-0.6-0.8V28.1H209.9z"/>
	<path class="st0" d="M357.7,28.1c0,4.4,0,8.8,0,13.4c0,0.8-0.2,0.8-0.8,0.8c-1.5,0-3.1,0-4.6,0c-0.4,0-0.6-0.2-0.6-0.6
		c0-9,0-18.1,0-27.1c0-0.4,0-0.6,0.6-0.6c1.5,0,3.1,0,4.6,0c0.6,0,0.8,0.2,0.8,0.8C357.7,19.1,357.7,23.7,357.7,28.1L357.7,28.1z"/>
</g>
</svg>
