<?xml version="1.0" encoding="utf-8"?>
<!-- Generator: Adobe Illustrator 26.2.1, SVG Export Plug-In . SVG Version: 6.00 Build 0)  -->
<svg version="1.1" id="Capa_1" xmlns="http://www.w3.org/2000/svg" xmlns:xlink="http://www.w3.org/1999/xlink" x="0px" y="0px"
	 viewBox="0 0 119.4 159.8" style="enable-background:new 0 0 119.4 159.8;" xml:space="preserve">
<style type="text/css">
	.st0{fill:#1D1D3D;}
</style>
<path class="st0" d="M119.3,80.2c0,9.5,0.1,19,0,28.5c-0.2,29.6-21.7,51.1-51.3,51c-9.6,0-19.5,0.3-28.8-1.6
	C16,153.5,0.6,134,0.2,110.2c-0.3-20.2-0.4-40.3,0-60.5C0.8,21.9,21.6,0.9,49.6,0.2c10.1-0.3,20.5-0.4,30.3,1.4
	c23.5,4.4,39,24.2,39.4,48.6C119.5,60.2,119.3,70.2,119.3,80.2z M105.2,79.8c-0.1,0-0.1,0-0.2,0c0-11,0.5-22-0.1-33
	C104,31.6,93.1,18.6,78.1,16c-8.9-1.6-18.2-1.1-27.3-1.1c-20.8-0.1-35.9,14.2-36.3,35c-0.4,20-0.3,40,0,59.9
	c0.3,18.1,12.4,32.5,29.7,34.8c8,1.1,16.3,0.4,24.4,0.4c21.6,0,36.4-14.7,36.6-36.3C105.2,99.1,105.2,89.4,105.2,79.8z"/>
<path class="st0" d="M50.3,44.8c0-2.2-0.2-4.3,0-6.5c0.7-4.9,4.9-8.4,9.7-8.3c4.9,0.2,8.8,3.7,9.1,8.8c0.3,4,0.3,8,0,11.9
	c-0.3,5.3-4.4,9-9.4,9c-4.8,0-8.8-3.5-9.4-8.5C50.1,49.1,50.3,47,50.3,44.8C50.3,44.8,50.3,44.8,50.3,44.8z"/>
</svg>
